<svg viewBox="0 0 400 300" xmlns="http://www.w3.org/2000/svg">
  <defs><linearGradient id="bg" x1="0" y1="0" x2="0" y2="1"><stop offset="0" stop-color="#f1faf0"/><stop offset="1" stop-color="#d9edd9"/></linearGradient></defs>
  <rect width="400" height="300" fill="url(#bg)"/>
  <g transform="translate(200,150)">
    <ellipse cx="0" cy="112" rx="70" ry="14" fill="#000" opacity=".06"/>
    <!-- chili 1 (red) -->
    <g transform="rotate(-14)">
      <path d="M-6,-70 C10,-64 16,-30 8,20 C2,64 -18,96 -34,92 C-46,88 -42,66 -30,40 C-14,4 -22,-40 -18,-64 Z" fill="#d62f2f"/>
      <path d="M-2,-60 C8,-52 10,-24 4,16" fill="none" stroke="#fff" stroke-width="4" opacity=".35" stroke-linecap="round"/>
      <path d="M-18,-64 C-30,-84 -10,-92 2,-84 C-4,-74 -8,-70 -6,-70 Z" fill="#4a8a2d"/>
      <rect x="-14" y="-92" width="9" height="20" rx="4" fill="#3f7a26"/>
    </g>
    <!-- chili 2 (red-orange) -->
    <g transform="translate(46,14) rotate(18)">
      <path d="M-6,-58 C8,-52 14,-24 6,18 C0,56 -16,84 -30,80 C-40,76 -36,58 -26,36 C-12,6 -18,-34 -14,-54 Z" fill="#e8582a"/>
      <path d="M-14,-54 C-26,-72 -8,-80 4,-72 C-2,-64 -6,-58 -6,-58 Z" fill="#5aa036"/>
      <rect x="-12" y="-80" width="8" height="18" rx="4" fill="#4a8a2d"/>
    </g>
  </g>
</svg>
