<svg viewBox="0 0 400 300" xmlns="http://www.w3.org/2000/svg">
  <defs><linearGradient id="bg" x1="0" y1="0" x2="0" y2="1"><stop offset="0" stop-color="#f1faf0"/><stop offset="1" stop-color="#d9edd9"/></linearGradient></defs>
  <rect width="400" height="300" fill="url(#bg)"/>
  <g transform="translate(200,158)">
    <ellipse cx="0" cy="118" rx="86" ry="16" fill="#000" opacity=".06"/>
    <path d="M0,-72 C-72,-72 -98,-24 -98,28 C-98,84 -56,114 -26,108 C-12,105 -6,92 0,92 C6,92 12,105 26,108 C56,114 98,84 98,28 C98,-24 72,-72 0,-72 Z" fill="#f6b70e"/>
    <path d="M-42,-58 C-66,-40 -74,-4 -70,34 C-66,70 -44,96 -24,96" fill="none" stroke="#e0a200" stroke-width="5" opacity=".45" stroke-linecap="round"/>
    <path d="M42,-58 C66,-40 74,-4 70,34 C66,70 44,96 24,96" fill="none" stroke="#e0a200" stroke-width="5" opacity=".45" stroke-linecap="round"/>
    <ellipse cx="46" cy="-14" rx="16" ry="44" fill="#ffd85a" opacity=".85"/>
    <rect x="-9" y="-98" width="18" height="34" rx="9" fill="#4a8a2d"/>
    <path d="M9,-90 C40,-100 52,-82 44,-68 C26,-74 13,-82 9,-90 Z" fill="#5aa036"/>
  </g>
</svg>
